<?xml version="1.0" standalone="no"?>
<!DOCTYPE svg PUBLIC "-//W3C//DTD SVG 20010904//EN"
 "http://www.w3.org/TR/2001/REC-SVG-20010904/DTD/svg10.dtd">
<svg version="1.0" xmlns="http://www.w3.org/2000/svg"
 width="151.000000pt" height="137.000000pt" viewBox="0 0 151.000000 137.000000"
 preserveAspectRatio="xMidYMid meet">

<g transform="translate(0.000000,137.000000) scale(0.100000,-0.100000)"
fill="#000000" stroke="none">
<path d="M184 1255 c-54 -22 -54 -22 -54 -614 l0 -548 26 -24 c24 -22 34 -24
150 -27 l124 -4 0 246 0 246 155 0 155 0 2 -243 3 -242 277 0 276 0 26 24 c24
22 26 32 26 102 0 43 -3 84 -6 93 -5 14 -28 16 -150 16 l-144 0 0 125 0 125
150 0 150 0 0 113 c0 61 -4 117 -8 123 -5 8 -54 11 -147 10 l-140 -1 -3 -122
-3 -123 -154 0 -154 0 -3 123 -3 122 -153 3 -153 3 3 122 3 122 153 3 152 3 0
-126 0 -125 155 0 155 0 0 125 0 124 148 3 147 3 3 86 c2 73 0 90 -17 110
l-19 24 -552 5 c-357 3 -561 1 -576 -5z"/>
</g>
</svg>
