<?xml version="1.0" encoding="UTF-8"?>
<svg version="1.1" xmlns="http://www.w3.org/2000/svg" width="400" height="400">
<path d="M0 0 C132 0 264 0 400 0 C400 132 400 264 400 400 C268 400 136 400 0 400 C0 268 0 136 0 0 Z " fill="#FE6031" transform="translate(0,0)"/>
<path d="M0 0 C0.66 0 1.32 0 2 0 C2 56.76 2 113.52 2 172 C-55.42 172 -112.84 172 -172 172 C-172 171.34 -172 170.68 -172 170 C-171.42636719 169.98582031 -170.85273438 169.97164062 -170.26171875 169.95703125 C-136.60297002 168.06723807 -93.06429324 150.20039506 -69.55859375 125.484375 C-68 124 -68 124 -65.78515625 122.76953125 C-61.8173319 120.24859937 -58.73128479 117.02014951 -55.4375 113.6875 C-54.77814453 113.03587891 -54.11878906 112.38425781 -53.43945312 111.71289062 C-49.76356117 108.02222122 -46.75438431 104.41596186 -44 100 C-42.78288725 98.52665299 -41.5649562 97.05389073 -40.33203125 95.59375 C-17.61221456 68.40992241 -5.23725751 34.63731669 0 0 Z " fill="#010000" transform="translate(398,228)"/>
<path d="M0 0 C56.76 0 113.52 0 172 0 C172 56.76 172 113.52 172 172 C171.34 172 170.68 172 170 172 C169.94392578 170.98292969 169.94392578 170.98292969 169.88671875 169.9453125 C169.4720276 164.07458678 168.52021773 158.90716044 166.6796875 153.32421875 C166 151 166 151 165.625 147.125 C165.16085941 142.40781601 163.19585075 138.404171 161.30078125 134.1015625 C160.12239975 131.29184806 159.22916489 128.54514992 158.375 125.625 C151.79223378 105.56198741 139.92341744 86.76161527 126 71 C125.45641846 70.36626465 124.91283691 69.7325293 124.3527832 69.07958984 C120.05145775 64.08406892 115.53329728 59.35020021 110.875 54.6875 C109.84052734 53.6346582 109.84052734 53.6346582 108.78515625 52.56054688 C105.3824704 49.14810189 102.27427571 46.30505583 98 44 C97.05125 43.154375 96.1025 42.30875 95.125 41.4375 C84.36191127 32.08331344 71.67150623 25.40597027 59.01464844 19.01855469 C57.25526973 18.12905784 55.50743208 17.21680694 53.76171875 16.30078125 C51.1176476 15.05541252 48.71217422 14.29308078 45.875 13.625 C41.65230723 12.54490988 37.80168872 11.13004131 33.8125 9.375 C29.07421987 7.31434171 25.12791063 6.38701212 20 6 C19.67 5.67 19.34 5.34 19 5 C17.67465944 4.72949592 16.33865052 4.51060935 15 4.31640625 C14.195625 4.19330078 13.39125 4.07019531 12.5625 3.94335938 C10.85473042 3.68953691 9.14638889 3.43953316 7.4375 3.19335938 C6.633125 3.06896484 5.82875 2.94457031 5 2.81640625 C4.2575 2.70756104 3.515 2.59871582 2.75 2.48657227 C2.1725 2.32600342 1.595 2.16543457 1 2 C0.67 1.34 0.34 0.68 0 0 Z " fill="#010000" transform="translate(228,0)"/>
<path d="M0 0 C56.76 0 113.52 0 172 0 C171.67 0.66 171.34 1.32 171 2 C169.27734375 2.2734375 169.27734375 2.2734375 166.9375 2.375 C160.12514365 2.93624527 153.67573761 4.6563011 147.10449219 6.43945312 C145.09916323 6.97358715 143.08754225 7.46624231 141.0703125 7.953125 C108.94886002 16.10894711 78.82471056 36.47418912 56 60 C55.22398438 60.75796875 54.44796875 61.5159375 53.6484375 62.296875 C40.72586505 75.48628523 30.53716097 90.73634462 22.02099609 107.06054688 C21.15411652 108.70724495 20.24722547 110.33278113 19.33203125 111.953125 C10.0720535 128.93388849 2.95216454 151.44391324 2.2734375 170.83984375 C2.18320312 171.55269531 2.09296875 172.26554688 2 173 C1.34 173.33 0.68 173.66 0 174 C0 116.58 0 59.16 0 0 Z " fill="#010000" transform="translate(0,0)"/>
<path d="M0 0 C0.66 0 1.32 0 2 0 C2.03665771 0.72703125 2.07331543 1.4540625 2.11108398 2.203125 C2.60265649 9.78634485 3.94474137 16.71321934 6.0625 24 C6.52668335 25.62023071 6.52668335 25.62023071 7.00024414 27.27319336 C13.11454994 48.04409717 21.98066983 67.96029233 34 86 C34.35852051 86.55461914 34.71704102 87.10923828 35.08642578 87.68066406 C42.04067978 98.28986118 50.77563308 107.17290263 59.6875 116.125 C60.56772324 117.01448334 60.56772324 117.01448334 61.46572876 117.92193604 C67.90557231 124.40523211 74.13172945 130.26055682 82 135 C83.11955478 135.77035468 84.23214194 136.5509798 85.3359375 137.34375 C91.99058616 142.06530021 98.69150973 146.34575487 106 150 C107.12921875 150.56460938 108.2584375 151.12921875 109.421875 151.7109375 C122.44932543 158.074601 135.88252474 162.5691965 149.875 166.3125 C150.8134375 166.56717041 151.751875 166.82184082 152.71875 167.08422852 C159.13113793 168.74095022 165.39227122 169.59252072 172 170 C172 170.66 172 171.32 172 172 C115.24 172 58.48 172 0 172 C0 115.24 0 58.48 0 0 Z " fill="#010000" transform="translate(0,228)"/>
<path d="M0 0 C0.67322943 -0.00226556 1.34645887 -0.00453111 2.04008919 -0.00686532 C4.31255559 -0.01323261 6.58496276 -0.01237422 8.85743713 -0.0115509 C10.47993548 -0.0145407 12.10243312 -0.0179428 13.72492981 -0.02172852 C18.14428921 -0.03059098 22.56362927 -0.03290757 26.9829967 -0.0335443 C30.66611693 -0.03449152 34.3492326 -0.03816764 38.03235108 -0.0417164 C46.71835214 -0.04986947 55.40434284 -0.05229985 64.09034729 -0.05158997 C73.06477367 -0.05098892 82.03914 -0.0615441 91.01355118 -0.07733363 C98.70611081 -0.09038799 106.39865076 -0.09577475 114.09122139 -0.09513456 C118.69115021 -0.09487895 123.29102569 -0.09776444 127.89094353 -0.10831261 C132.21566456 -0.11795831 136.54028088 -0.11809719 140.86500549 -0.11079597 C142.45576187 -0.10974572 144.04652464 -0.11213893 145.63726997 -0.11815643 C147.80208769 -0.12581755 149.96653844 -0.12127114 152.13134766 -0.11352539 C153.95178416 -0.11434254 153.95178416 -0.11434254 155.80899715 -0.1151762 C158.62916565 0.13371277 158.62916565 0.13371277 160.62916565 2.13371277 C160.89479065 5.32121277 160.89479065 5.32121277 160.87916565 9.13371277 C160.88690002 11.02090027 160.88690002 11.02090027 160.89479065 12.94621277 C160.62916565 16.13371277 160.62916565 16.13371277 158.62916565 18.13371277 C156.41453552 18.3742218 156.41453552 18.3742218 153.62867737 18.36076355 C152.58774933 18.36061249 151.54682129 18.36046143 150.47434998 18.36030579 C148.78367905 18.34482193 148.78367905 18.34482193 147.05885315 18.32902527 C145.90748871 18.32619537 144.75612427 18.32336548 143.56987 18.32044983 C139.88119753 18.30922685 136.19276512 18.28411833 132.50416565 18.25871277 C130.0080754 18.24868571 127.51198135 18.23955939 125.0158844 18.23136902 C118.88689581 18.20928061 112.75804788 18.17578224 106.62916565 18.13371277 C108.18973154 23.37461097 109.68916457 27.82812902 113.12135315 32.17277527 C118.11426293 38.73468922 122.74148168 45.50248993 127.31471252 52.36076355 C128.28487707 53.80844124 129.26259931 55.25107911 130.24732971 56.68888855 C131.68664445 58.79195573 133.10148957 60.90967764 134.51197815 63.03215027 C134.95655365 63.67179718 135.40112915 64.31144409 135.85917664 64.97047424 C137.05543518 66.80314636 137.05543518 66.80314636 138.62916565 70.13371277 C137.88648987 73.07756042 137.88648987 73.07756042 136.62916565 75.13371277 C133.954152 75.4346518 131.31309497 75.64928052 128.62916565 75.82121277 C127.88537659 75.91338074 127.14158752 76.00554871 126.3752594 76.10050964 C123.78519002 76.22438253 122.06083766 76.06143216 119.62916565 75.13371277 C116.81948676 72.38315187 114.80735728 69.24114594 112.74195862 65.90797424 C111.55742371 64.01932585 110.32217911 62.17313147 109.0705719 60.32829285 C106.22726839 56.13696476 103.42691344 51.9180351 100.62916565 47.69621277 C99.67365678 46.25791535 98.7179286 44.81976361 97.76197815 43.38175964 C97.29437073 42.67699493 96.82676331 41.97223022 96.34498596 41.24610901 C95.41620261 39.85061122 94.4833124 38.45783729 93.54615784 37.06794739 C91.42219707 33.90689046 89.37692924 30.74774698 87.51197815 27.42619324 C86.87002502 26.32807312 86.2280719 25.229953 85.56666565 24.09855652 C85.03943909 23.1342572 84.51221252 22.16995789 83.9690094 21.17643738 C80.75545873 18.37095131 78.35113498 18.17996472 74.15287781 18.41073608 C69.21129017 19.82637005 67.20300398 23.89995754 64.6252594 28.08293152 C64.01706863 29.00652969 63.40887787 29.93012787 62.78225708 30.88171387 C60.84363554 33.8413275 58.95496337 36.82929868 57.06666565 39.82121277 C55.79451682 41.78490526 54.5191551 43.74652029 53.24049377 45.70597839 C46.52545862 55.97976436 46.52545862 55.97976436 40.03981018 66.39836121 C35.01054505 74.52249745 35.01054505 74.52249745 31.36524963 76.13542175 C28.96993147 76.45115089 27.01628633 76.34973001 24.62916565 76.00871277 C23.86732971 75.95843933 23.10549377 75.90816589 22.3205719 75.85636902 C16.9393581 75.44390522 16.9393581 75.44390522 15.62916565 74.13371277 C14.93479381 68.65447844 16.87288212 65.52781162 19.96510315 61.23918152 C20.41421051 60.59176498 20.86331787 59.94434845 21.32603455 59.27731323 C22.27399524 57.91098588 23.22733038 56.54837351 24.1856842 55.1893158 C26.49285793 51.90376383 28.73481485 48.57458604 30.98072815 45.24699402 C31.8595908 43.94683434 32.73849699 42.64670408 33.6174469 41.34660339 C34.2664093 40.38524475 34.2664093 40.38524475 34.92848206 39.40446472 C35.82704255 38.07714359 36.72884138 36.75201001 37.63356018 35.42887878 C38.96626207 33.47811568 40.28704776 31.5197531 41.60572815 29.55949402 C42.01183319 28.9709816 42.41793823 28.38246918 42.83634949 27.77612305 C45.0213192 24.50046164 45.62916565 23.21047332 45.62916565 19.13371277 C44.67742966 19.12158249 44.67742966 19.12158249 43.70646667 19.10920715 C37.12059501 19.02335094 30.53503094 18.92385638 23.94947815 18.81632996 C21.48956963 18.77797515 19.02960378 18.74313393 16.56959534 18.71183777 C13.03976402 18.66632826 9.5103297 18.60831079 5.98072815 18.54777527 C4.87548798 18.53622406 3.7702478 18.52467285 2.6315155 18.51277161 C1.61060822 18.49290192 0.58970093 18.47303223 -0.46214294 18.45256042 C-1.36371124 18.43923676 -2.26527954 18.42591309 -3.19416809 18.41218567 C-5.37083435 18.13371277 -5.37083435 18.13371277 -7.37083435 16.13371277 C-7.54247166 13.5707896 -7.60347993 11.1302542 -7.55833435 8.57121277 C-7.55768982 7.87318542 -7.55704529 7.17515808 -7.55638123 6.45597839 C-7.49685346 -0.36325745 -6.60179658 0.00911898 0 0 Z " fill="#FEFDFC" transform="translate(123.37083435058594,209.8662872314453)"/>
<path d="M0 0 C2.67501365 -0.30093904 5.31607068 -0.51556776 8 -0.6875 C8.74378906 -0.77966797 9.48757812 -0.87183594 10.25390625 -0.96679688 C12.82996134 -1.08999951 14.57798938 -0.907884 17 0 C19.79042979 2.64122676 21.71161156 5.75390514 23.73565674 9.00326538 C25.18960512 11.29943697 26.70655125 13.54616643 28.23388672 15.79418945 C31.35100538 20.38310782 34.4367494 24.99196486 37.51147461 29.609375 C39.45328227 32.52368641 41.40126501 35.43380578 43.34960938 38.34375 C44.58631095 40.1976676 45.82265241 42.05182549 47.05859375 43.90625 C47.9319059 45.20931091 47.9319059 45.20931091 48.82286072 46.53869629 C49.35754471 47.34383667 49.8922287 48.14897705 50.44311523 48.97851562 C50.91418198 49.68480103 51.38524872 50.39108643 51.87059021 51.11877441 C53 53 53 53 54 56 C55.58179615 56.10867302 57.16577153 56.18589827 58.75 56.25 C59.63171875 56.29640625 60.5134375 56.3428125 61.421875 56.390625 C64.87272489 55.86776896 65.69853898 54.60121988 68 52 C69.40636354 49.94677161 70.76092557 47.85763131 72.078125 45.74609375 C72.87148324 44.48843284 73.66647107 43.23179877 74.46289062 41.97607422 C74.87676025 41.32338562 75.29062988 40.67069702 75.71704102 39.99822998 C79.16657897 34.62551717 82.78779832 29.36402327 86.37646484 24.08374023 C87.76468355 22.04089227 89.15009813 19.99616373 90.53515625 17.95117188 C91.43473464 16.62489065 92.33446853 15.29871488 93.234375 13.97265625 C93.63968445 13.37461685 94.0449939 12.77657745 94.46258545 12.16041565 C95.24238852 11.01381833 96.02678898 9.87033203 96.81611633 8.73027039 C97.65022928 7.51119712 98.46319252 6.27751881 99.26042175 5.03401184 C102.50632522 0.12608145 102.50632522 0.12608145 105.1153717 -0.54025269 C107.38750606 -0.69596166 109.54203855 -0.61068692 111.8125 -0.4375 C112.99489258 -0.39012695 112.99489258 -0.39012695 114.20117188 -0.34179688 C116.13572925 -0.25972474 118.06835663 -0.13417148 120 0 C121.17358398 2.18969727 121.17358398 2.18969727 122 5 C120.99633789 7.42163086 120.99633789 7.42163086 119.22265625 9.96484375 C118.57047119 10.9197168 117.91828613 11.87458984 117.24633789 12.85839844 C116.52567139 13.87450195 115.80500488 14.89060547 115.0625 15.9375 C113.97859985 17.5138623 113.97859985 17.5138623 112.87280273 19.12207031 C110.97675472 21.87583963 109.06661772 24.61856131 107.1484375 27.35687256 C104.5970096 31.00732911 102.07412 34.67744189 99.55444336 38.34985352 C98.2475642 40.25258884 96.93349577 42.15041039 95.61157227 44.04272461 C95.01916748 44.90003174 94.4267627 45.75733887 93.81640625 46.640625 C93.29506104 47.38860352 92.77371582 48.13658203 92.23657227 48.90722656 C91.01225141 50.97926573 90.34708806 52.62385654 90 55 C91.63625881 56.63625881 93.50620085 56.14966831 95.76342773 56.17358398 C96.77795517 56.18707382 97.7924826 56.20056366 98.8377533 56.21446228 C99.94188065 56.22490067 101.046008 56.23533905 102.18359375 56.24609375 C104.49544658 56.27902642 106.80729544 56.31223816 109.11914062 56.34570312 C112.78423375 56.39319946 116.44931013 56.43762625 120.11450195 56.47680664 C123.6377048 56.51638254 127.16057306 56.56795915 130.68359375 56.62109375 C131.78569687 56.6295079 132.88779999 56.63792206 134.02330017 56.64659119 C135.54981956 56.67155418 135.54981956 56.67155418 137.10717773 56.69702148 C138.45500587 56.71248268 138.45500587 56.71248268 139.83006287 56.72825623 C142 57 142 57 144 59 C144.17163731 61.56292317 144.23264558 64.00345857 144.1875 66.5625 C144.1865332 67.60954102 144.1865332 67.60954102 144.18554688 68.67773438 C144.14031158 73.85968842 144.14031158 73.85968842 143 75 C140.87833751 75.10129389 138.75324275 75.13077881 136.62916565 75.13371277 C135.95593622 75.13597833 135.28270678 75.13824388 134.58907646 75.14057809 C132.31661006 75.14694538 130.04420289 75.14608699 127.77172852 75.14526367 C126.14923016 75.14825346 124.52673253 75.15165557 122.90423584 75.15544128 C118.48487644 75.16430375 114.06553637 75.16662033 109.64616895 75.16725707 C105.96304872 75.16820429 102.27993305 75.17188041 98.59681457 75.17542917 C89.91081351 75.18358224 81.22482281 75.18601262 72.53881836 75.18530273 C63.56439197 75.18470169 54.59002565 75.19525686 45.61561447 75.2110464 C37.92305484 75.22410076 30.23051489 75.22948752 22.53794426 75.22884732 C17.93801544 75.22859172 13.33813996 75.23147721 8.73822212 75.24202538 C4.41350109 75.25167108 0.08888477 75.25180995 -4.23583984 75.24450874 C-5.82659622 75.24345849 -7.41735899 75.2458517 -9.00810432 75.2518692 C-11.17292204 75.25953032 -13.33737279 75.25498391 -15.50218201 75.24723816 C-17.32261851 75.24805531 -17.32261851 75.24805531 -19.1798315 75.24888897 C-22 75 -22 75 -24 73 C-24.265625 69.8125 -24.265625 69.8125 -24.25 66 C-24.25515625 64.741875 -24.2603125 63.48375 -24.265625 62.1875 C-24 59 -24 59 -22 57 C-19.82333374 56.7215271 -19.82333374 56.7215271 -17.09130859 56.68115234 C-16.07040131 56.66128265 -15.04949402 56.64141296 -13.99765015 56.62094116 C-12.89240997 56.60938995 -11.7871698 56.59783875 -10.6484375 56.5859375 C-9.5192691 56.56657135 -8.39010071 56.5472052 -7.22671509 56.5272522 C-3.60955428 56.46732931 0.00763813 56.42101998 3.625 56.375 C6.07293078 56.33683195 8.52084796 56.29778092 10.96875 56.2578125 C16.97904624 56.16161741 22.98942393 56.07660735 29 56 C29.08343726 52.37508895 29.06579063 50.46728878 26.8671875 47.53125 C26.39740479 46.88792725 25.92762207 46.24460449 25.44360352 45.58178711 C24.66714478 44.55130249 24.66714478 44.55130249 23.875 43.5 C22.77469409 41.99281621 21.67716266 40.48360405 20.58203125 38.97265625 C20.00018066 38.17230957 19.41833008 37.37196289 18.81884766 36.54736328 C15.62950148 32.08056624 12.59756384 27.50993013 9.5625 22.9375 C8.98419434 22.06996094 8.40588867 21.20242187 7.81005859 20.30859375 C6.71237205 18.65584701 5.62185607 16.99830905 4.53955078 15.33544922 C3.52522569 13.79675055 2.48222861 12.27651901 1.40966797 10.77783203 C0.09225722 8.87540009 -1.0947463 7.12974861 -2 5 C-1.3125 2 -1.3125 2 0 0 Z " fill="#FEFCFC" transform="translate(140,116)"/>
<path d="M0 0 C3.01367188 3.69970703 3.01367188 3.69970703 2.890625 6.40234375 C2.67921875 7.23894531 2.4678125 8.07554688 2.25 8.9375 C2.04890625 9.77152344 1.8478125 10.60554687 1.640625 11.46484375 C1.42921875 12.30144531 1.2178125 13.13804687 1 14 C0.85046875 14.90878906 0.7009375 15.81757813 0.546875 16.75390625 C0.36640625 17.49511719 0.1859375 18.23632812 0 19 C-0.66 19.33 -1.32 19.66 -2 20 C-3.05121757 22.31267866 -3.88861366 24.66394235 -4.6875 27.07421875 C-4.935 27.79222656 -5.1825 28.51023438 -5.4375 29.25 C-5.66308594 29.93578125 -5.88867188 30.6215625 -6.12109375 31.328125 C-7 33 -7 33 -10 34 C-8.68886656 26.18354338 -6.44889075 18.86020171 -3.875 11.375 C-3.50246094 10.27542969 -3.12992188 9.17585937 -2.74609375 8.04296875 C-1.83623435 5.36005 -0.92078919 2.67918301 0 0 Z " fill="#F15E1A" transform="translate(15,119)"/>
<path d="M0 0 C17.16 0 34.32 0 52 0 C52.495 2.475 52.495 2.475 53 5 C52.34 5.33 51.68 5.66 51 6 C51 4.68 51 3.36 51 2 C50.39056549 2.00444122 49.78113098 2.00888245 49.15322876 2.01345825 C42.82711118 2.05760407 36.50103715 2.08782987 30.17480469 2.10986328 C27.81183089 2.11993924 25.44886961 2.13360029 23.0859375 2.15087891 C19.69528112 2.17505724 16.30478916 2.18646699 12.9140625 2.1953125 C11.85256989 2.20563507 10.79107727 2.21595764 9.69741821 2.22659302 C8.71655243 2.22674408 7.73568665 2.22689514 6.72509766 2.22705078 C5.42603989 2.23371262 5.42603989 2.23371262 4.10073853 2.24050903 C2 2 2 2 0 0 Z " fill="#F95B29" transform="translate(117,228)"/>
<path d="M0 0 C0 4.04863987 -1.29319268 5.01557142 -4 8 C-5.72447367 9.54875716 -7.48692067 11.04128949 -9.265625 12.52734375 C-12.49121325 15.26618783 -15.35823414 18.19779268 -18 21.5 C-20 24 -20 24 -22.6875 26.625 C-25.19296794 28.85348846 -25.19296794 28.85348846 -26 32 C-26.99 31.67 -27.98 31.34 -29 31 C-25.41067793 22.93347093 -18.63548548 16.19331632 -11.91796875 10.62890625 C-9.2953627 8.40156059 -6.928558 5.95672172 -4.54296875 3.48046875 C-3 2 -3 2 0 0 Z " fill="#F5601C" transform="translate(72,44)"/>
<path d="M0 0 C0.6875 1.8125 0.6875 1.8125 1 4 C-0.24609375 5.37109375 -0.24609375 5.37109375 -2 7 C-3.07435801 8.9928931 -4.09094702 11.01751764 -5.0625 13.0625 C-7.79166667 18.79166667 -7.79166667 18.79166667 -10 21 C-10.99 20.67 -11.98 20.34 -13 20 C-9.05527192 12.99752412 -5.03805976 6.27450666 0 0 Z " fill="#EA5B19" transform="translate(40,77)"/>
<path d="M0 0 C0.66 0.66 1.32 1.32 2 2 C2.66 1.67 3.32 1.34 4 1 C4.07427838 4.34252724 4.06546953 6.8035914 3 10 C3.309375 11.051875 3.61875 12.10375 3.9375 13.1875 C5.11806548 17.42364671 5.15314572 20.63534699 5 25 C0.77267932 17.0967483 -0.51950207 8.87001678 0 0 Z " fill="#EE611E" transform="translate(2,230)"/>
<path d="M0 0 C1 3 1 3 -0.21484375 5.91796875 C-0.78332031 6.99691406 -1.35179687 8.07585937 -1.9375 9.1875 C-2.50339844 10.27417969 -3.06929688 11.36085938 -3.65234375 12.48046875 C-4.09707031 13.31191406 -4.54179687 14.14335937 -5 15 C-5.12375 14.360625 -5.2475 13.72125 -5.375 13.0625 C-5.58125 12.381875 -5.7875 11.70125 -6 11 C-6.66 10.67 -7.32 10.34 -8 10 C-7.1875 8.0625 -7.1875 8.0625 -6 6 C-5.01 5.67 -4.02 5.34 -3 5 C-1.30117552 2.50240018 -1.30117552 2.50240018 0 0 Z " fill="#F86423" transform="translate(381,283)"/>
<path d="M0 0 C2.90612532 0.62782663 5.30819641 1.55776643 7.9375 2.9375 C10.26586374 4.14077753 12.48277016 5.1848907 14.9375 6.125 C17 7 17 7 18 9 C11.5811453 7.26375242 5.86215164 5.14819255 0 2 C0 1.34 0 0.68 0 0 Z " fill="#E95A1F" transform="translate(113,380)"/>
<path d="M0 0 C3.62613199 0.56959153 5.25517741 1.92374534 7.75 4.5625 C8.36359375 5.20316406 8.9771875 5.84382813 9.609375 6.50390625 C10.06828125 6.99761719 10.5271875 7.49132813 11 8 C10.01 8.33 9.02 8.66 8 9 C6.68 7.68 5.36 6.36 4 5 C3.01 5.495 3.01 5.495 2 6 C0 3 0 3 0 0 Z " fill="#FD7127" transform="translate(328,46)"/>
<path d="M0 0 C-5.1764201 4.60126231 -7.08313964 5 -14 5 C-10.63156097 2.05261585 -4.40469071 -2.20234535 0 0 Z " fill="#E15910" transform="translate(133,11)"/>
<path d="M0 0 C1.25541557 3.76624671 0.37061958 5.37188934 -1 9 C-1.66 9 -2.32 9 -3 9 C-3 10.32 -3 11.64 -3 13 C-3.99 13 -4.98 13 -6 13 C-4.58707905 8.1725201 -2.57025846 4.2837641 0 0 Z " fill="#E75718" transform="translate(26,98)"/>
<path d="M0 0 C2.31 0.66 4.62 1.32 7 2 C6.67 2.66 6.34 3.32 6 4 C2.04 4 -1.92 4 -6 4 C-5.67 3.34 -5.34 2.68 -5 2 C-3.35 2 -1.7 2 0 2 C0 1.34 0 0.68 0 0 Z " fill="#ED5E1E" transform="translate(167,394)"/>
<path d="M0 0 C0.66 0 1.32 0 2 0 C4.39542583 4.58154261 6.50829734 9.0276578 8 14 C5 13 5 13 3.61328125 10.56640625 C2.96939453 9.07947266 2.96939453 9.07947266 2.3125 7.5625 C1.87550781 6.57378906 1.43851563 5.58507812 0.98828125 4.56640625 C0 2 0 2 0 0 Z " fill="#EC611E" transform="translate(16,281)"/>
<path d="M0 0 C0.99 1.32 1.98 2.64 3 4 C1.55746343 7.36591866 -0.33264727 9.51047079 -3 12 C-2.40075776 7.80530429 -1.42500059 3.99000166 0 0 Z " fill="#E35316" transform="translate(15,119)"/>
<path d="M0 0 C4.75207471 -0.43200679 7.78210698 1.01510917 12 3 C9 5 9 5 7 6 C4.56070254 4.07423885 2.19909405 2.19909405 0 0 Z " fill="#EB621B" transform="translate(262,10)"/>
<path d="M0 0 C2.97 1.65 5.94 3.3 9 5 C8.01 5.99 7.02 6.98 6 8 C4.68 7.34 3.36 6.68 2 6 C2 4.68 2 3.36 2 2 C1.34 2 0.68 2 0 2 C0 1.34 0 0.68 0 0 Z " fill="#F1651B" transform="translate(312,33)"/>
<path d="M0 0 C1.31611677 0.95336021 2.62778961 1.91285774 3.9375 2.875 C4.66839844 3.40867187 5.39929688 3.94234375 6.15234375 4.4921875 C8 6 8 6 9 8 C9.66 8 10.32 8 11 8 C10.67 8.99 10.34 9.98 10 11 C8.70145279 9.92492371 7.41141639 8.83956264 6.125 7.75 C5.40570313 7.14671875 4.68640625 6.5434375 3.9453125 5.921875 C2.02947882 4.02912366 1.03550955 2.46342273 0 0 Z " fill="#F35E20" transform="translate(65,348)"/>
<path d="M0 0 C0.33 0.66 0.66 1.32 1 2 C-0.52994792 3.23697917 -2.05989583 4.47395833 -3.58984375 5.7109375 C-5.13266437 6.9666391 -5.13266437 6.9666391 -6 9 C-7.32 8.67 -8.64 8.34 -10 8 C-8.71064081 6.85157077 -7.41843421 5.70633773 -6.125 4.5625 C-5.04605469 3.60537109 -5.04605469 3.60537109 -3.9453125 2.62890625 C-2 1 -2 1 0 0 Z " fill="#F15E1B" transform="translate(84,35)"/>
<path d="M0 0 C0.33 0 0.66 0 1 0 C0.85831863 1.43791516 0.71148957 2.8753237 0.5625 4.3125 C0.48128906 5.11300781 0.40007812 5.91351563 0.31640625 6.73828125 C0 9 0 9 -1 12 C-1.99 12 -2.98 12 -4 12 C-2.66666667 8 -1.33333333 4 0 0 Z " fill="#FA6926" transform="translate(392,252)"/>
<path d="M0 0 C1.98 0.66 3.96 1.32 6 2 C6 2.99 6 3.98 6 5 C4.35 5 2.7 5 1 5 C0.67 3.35 0.34 1.7 0 0 Z " fill="#FB6B1E" transform="translate(298,25)"/>
<path d="M0 0 C-0.33 1.32 -0.66 2.64 -1 4 C-3.97 3.505 -3.97 3.505 -7 3 C-6.67 2.01 -6.34 1.02 -6 0 C-3 -1 -3 -1 0 0 Z " fill="#E95619" transform="translate(138,387)"/>
<path d="M0 0 C2.4375 0.75 2.4375 0.75 5 2 C5.9375 4 5.9375 4 6 6 C5.34 6.66 4.68 7.32 4 8 C2.68 5.36 1.36 2.72 0 0 Z " fill="#F06019" transform="translate(28,305)"/>
<path d="M0 0 C0.99 0 1.98 0 3 0 C2.01 2.97 1.02 5.94 0 9 C-0.66 8.01 -1.32 7.02 -2 6 C-1.125 2.8125 -1.125 2.8125 0 0 Z " fill="#E75B22" transform="translate(387,266)"/>
<path d="M0 0 C2.64 0.33 5.28 0.66 8 1 C8 1.66 8 2.32 8 3 C6.25 3.75 6.25 3.75 4 4 C1.75 2.0625 1.75 2.0625 0 0 Z " fill="#EE5C1D" transform="translate(89,368)"/>
<path d="M0 0 C1.65 1.32 3.3 2.64 5 4 C4.34 5.32 3.68 6.64 3 8 C0 2.25 0 2.25 0 0 Z " fill="#F76F28" transform="translate(357,75)"/>
<path d="M0 0 C1.32 0.33 2.64 0.66 4 1 C4.33 2.32 4.66 3.64 5 5 C4.01 5.33 3.02 5.66 2 6 C0 3 0 3 0 0 Z " fill="#F76B20" transform="translate(328,46)"/>
<path d="M0 0 C0 3 0 3 -1.875 5.1875 C-4 7 -4 7 -6 7 C-4.60667426 3.63279613 -3.0210714 2.0140476 0 0 Z " fill="#EC5B18" transform="translate(72,44)"/>
<path d="M0 0 C-0.33 0.99 -0.66 1.98 -1 3 C-3.5625 4.1875 -3.5625 4.1875 -6 5 C-6.66 4.34 -7.32 3.68 -8 3 C-2.25 0 -2.25 0 0 0 Z " fill="#E45613" transform="translate(113,19)"/>
</svg>
