<svg xmlns="http://www.w3.org/2000/svg" width="500" height="500" viewBox="0 0 500 500">
<g>
<path d="M 500.00 0.00 L 500.00 500.00 L 0.00 500.00 L 111.75 499.89 C179.54,499.82 221.53,499.43 218.50,498.90 C215.75,498.41 210.80,497.53 207.50,496.93 C139.65,484.57 80.45,445.03 42.68,386.82 C38.64,380.59 34.65,374.15 33.82,372.50 C32.98,370.85 30.70,366.35 28.75,362.50 C13.72,332.88 5.81,302.99 3.03,265.25 C1.56,245.28 3.91,215.58 8.48,196.33 C19.76,148.78 41.33,109.72 74.98,75.91 C99.70,51.07 123.60,34.95 156.00,21.29 C183.13,9.85 211.94,3.68 244.51,2.34 C263.94,1.53 297.17,5.07 312.90,9.61 C330.83,14.78 336.06,16.45 341.13,18.61 C344.22,19.92 347.01,21.00 347.32,21.00 C348.07,21.00 367.76,30.47 371.00,32.39 C372.38,33.21 377.77,36.34 383.00,39.35 C388.23,42.36 394.84,46.78 397.70,49.16 C400.56,51.55 406.64,56.42 411.20,60.00 C420.74,67.47 436.30,82.75 443.28,91.51 C445.91,94.80 449.68,99.53 451.66,102.00 C456.42,107.95 465.18,121.37 467.99,127.00 C469.22,129.48 470.82,132.18 471.54,133.00 C475.69,137.75 494.00,185.03 494.00,190.98 C494.00,192.00 494.67,195.46 495.48,198.67 C496.29,201.88 497.60,208.10 498.39,212.50 C499.67,219.67 499.83,209.10 499.91,110.25 L 500.00 0.00 ZM 298.61 496.52 L 281.50 499.83 L 500.00 500.00 L 499.88 391.25 C499.80,318.55 499.44,284.16 498.80,287.50 C498.27,290.25 496.75,297.96 495.42,304.64 C488.48,339.35 469.99,378.22 446.83,406.77 C438.65,416.84 416.57,438.95 406.85,446.79 C376.52,471.26 338.24,488.85 298.61,496.52 ZM 166.82 370.66 C168.90,372.24 185.89,372.46 189.21,370.95 C191.13,370.07 211.57,340.99 226.00,318.60 C235.68,303.57 243.29,292.92 244.98,292.01 C248.09,290.34 257.22,290.82 259.63,292.77 C261.40,294.21 273.42,311.62 284.00,328.07 C287.64,333.73 307.94,363.62 311.22,368.14 L 314.01 372.00 L 324.69 372.00 C334.28,372.00 335.61,371.78 337.69,369.83 C338.96,368.63 340.00,366.98 340.00,366.16 C340.00,364.91 336.39,359.25 323.05,339.63 C322.26,338.46 316.68,330.08 310.67,321.00 C304.65,311.92 298.44,302.93 296.86,301.02 C293.82,297.33 293.23,294.17 295.20,292.20 C296.09,291.31 305.53,291.00 331.48,291.00 C361.61,291.00 366.87,290.78 368.78,289.44 C370.83,288.01 371.00,287.10 371.00,277.57 C371.00,270.20 370.62,266.93 369.67,266.14 C368.72,265.35 335.12,265.02 251.44,264.98 C141.70,264.92 134.45,265.03 133.27,266.65 C132.47,267.73 132.00,271.64 132.00,277.08 C132.00,284.15 132.36,286.22 133.91,288.14 L 135.82 290.50 L 207.45 291.50 L 208.38 294.14 C209.21,296.49 208.32,298.23 200.40,309.93 C195.51,317.16 190.62,324.52 189.54,326.29 C188.46,328.06 185.42,332.54 182.79,336.25 C180.15,339.97 178.00,343.30 178.00,343.66 C178.00,344.02 176.85,345.82 175.44,347.67 C174.03,349.52 170.85,354.05 168.38,357.73 C163.63,364.81 163.25,367.95 166.82,370.66 ZM 133.87 236.35 C135.13,237.87 144.57,238.00 251.29,238.00 C357.88,238.00 367.49,237.86 369.17,236.35 C370.70,234.96 371.00,233.12 371.00,225.05 C371.00,218.88 370.57,214.97 369.80,214.20 C368.91,213.31 359.47,213.00 333.52,213.00 C303.39,213.00 298.13,212.78 296.22,211.44 C293.09,209.25 293.44,206.65 297.75,200.36 C299.81,197.34 302.62,193.12 304.00,190.99 C305.38,188.85 314.12,175.81 323.42,162.02 L 340.35 136.94 L 338.32 134.22 C336.35,131.59 335.95,131.49 325.35,131.22 C315.06,130.95 314.28,131.07 312.30,133.22 C310.25,135.44 302.81,146.21 290.70,164.50 C287.42,169.45 283.97,174.62 283.03,176.00 C282.10,177.38 276.94,185.02 271.58,193.00 C259.52,210.95 257.47,213.00 251.54,213.00 C248.35,213.00 246.42,212.37 244.64,210.75 C242.37,208.69 227.00,186.44 227.00,185.22 C227.00,184.93 225.63,182.85 223.94,180.60 C222.26,178.34 216.75,170.26 211.69,162.63 C206.64,154.99 200.48,145.70 198.00,141.97 C194.04,136.01 192.38,133.28 189.95,132.03 C187.91,130.99 185.32,130.99 180.37,131.00 C179.91,131.00 179.42,131.00 178.92,131.00 C167.20,131.00 165.00,131.88 165.00,136.54 C165.00,138.82 176.18,157.49 182.04,165.00 C183.54,166.93 186.06,170.56 187.63,173.09 C189.21,175.61 192.42,180.56 194.76,184.09 C197.11,187.61 199.58,191.35 200.26,192.39 C200.94,193.43 202.45,195.45 203.61,196.89 C206.55,200.53 209.00,205.53 209.00,207.89 C209.00,208.99 208.00,210.59 206.78,211.44 C204.87,212.78 199.64,213.00 170.03,213.02 C150.02,213.02 134.87,213.43 134.00,213.98 C131.94,215.28 131.84,233.89 133.87,236.35 Z" fill="rgb(253,85,18)"/>
<path d="M 0.00 250.00 L 0.00 0.00 L 250.00 0.00 L 500.00 0.00 L 499.91 110.25 C499.83,209.10 499.67,219.67 498.39,212.50 C497.60,208.10 496.29,201.88 495.48,198.67 C494.67,195.46 494.00,192.00 494.00,190.98 C494.00,185.03 475.69,137.75 471.54,133.00 C470.82,132.18 469.22,129.48 467.99,127.00 C465.18,121.37 456.42,107.95 451.66,102.00 C449.68,99.53 445.91,94.80 443.28,91.51 C436.30,82.75 420.74,67.47 411.20,60.00 C406.64,56.42 400.56,51.55 397.70,49.16 C394.84,46.78 388.23,42.36 383.00,39.35 C377.77,36.34 372.38,33.21 371.00,32.39 C367.76,30.47 348.07,21.00 347.32,21.00 C347.01,21.00 344.22,19.92 341.13,18.61 C336.06,16.45 330.83,14.78 312.90,9.61 C297.17,5.07 263.94,1.53 244.51,2.34 C211.94,3.68 183.13,9.85 156.00,21.29 C123.60,34.95 99.70,51.07 74.98,75.91 C41.33,109.72 19.76,148.78 8.48,196.33 C3.91,215.58 1.56,245.28 3.03,265.25 C5.81,302.99 13.72,332.88 28.75,362.50 C30.70,366.35 32.98,370.85 33.82,372.50 C34.65,374.15 38.64,380.59 42.68,386.82 C80.45,445.03 139.65,484.57 207.50,496.93 C210.80,497.53 215.75,498.41 218.50,498.90 C221.53,499.43 179.54,499.82 111.75,499.89 L 0.00 500.00 L 0.00 250.00 ZM 298.61 496.52 C338.24,488.85 376.52,471.26 406.85,446.79 C416.57,438.95 438.65,416.84 446.83,406.77 C469.99,378.22 488.48,339.35 495.42,304.64 C496.75,297.96 498.27,290.25 498.80,287.50 C499.44,284.16 499.80,318.55 499.88,391.25 L 500.00 500.00 L 390.75 499.92 L 281.50 499.83 L 298.61 496.52 ZM 166.82 370.66 C163.25,367.95 163.63,364.81 168.38,357.73 C170.85,354.05 174.03,349.52 175.44,347.67 C176.85,345.82 178.00,344.02 178.00,343.66 C178.00,343.30 180.15,339.97 182.79,336.25 C185.42,332.54 188.46,328.06 189.54,326.29 C190.62,324.52 195.51,317.16 200.40,309.93 C208.32,298.23 209.21,296.49 208.38,294.14 L 207.45 291.50 L 171.64 291.00 L 135.82 290.50 L 133.91 288.14 C132.36,286.22 132.00,284.15 132.00,277.08 C132.00,271.64 132.47,267.73 133.27,266.65 C134.45,265.03 141.70,264.92 251.44,264.98 C335.12,265.02 368.72,265.35 369.67,266.14 C370.62,266.93 371.00,270.20 371.00,277.57 C371.00,287.10 370.83,288.01 368.78,289.44 C366.87,290.78 361.61,291.00 331.48,291.00 C305.53,291.00 296.09,291.31 295.20,292.20 C293.23,294.17 293.82,297.33 296.86,301.02 C298.44,302.93 304.65,311.92 310.67,321.00 C316.68,330.08 322.26,338.46 323.05,339.63 C336.39,359.25 340.00,364.91 340.00,366.16 C340.00,366.98 338.96,368.63 337.69,369.83 C335.61,371.78 334.28,372.00 324.69,372.00 L 314.01 372.00 L 311.22 368.14 C307.94,363.62 287.64,333.73 284.00,328.07 C273.42,311.62 261.40,294.21 259.63,292.77 C257.22,290.82 248.09,290.34 244.98,292.01 C243.29,292.92 235.68,303.57 226.00,318.60 C211.57,340.99 191.13,370.07 189.21,370.95 C185.89,372.46 168.90,372.24 166.82,370.66 ZM 133.87 236.35 C131.84,233.89 131.94,215.28 134.00,213.98 C134.87,213.43 150.02,213.02 170.03,213.02 C199.64,213.00 204.87,212.78 206.78,211.44 C208.00,210.59 209.00,208.99 209.00,207.89 C209.00,205.53 206.55,200.53 203.61,196.89 C202.45,195.45 200.94,193.43 200.26,192.39 C199.58,191.35 197.11,187.61 194.76,184.09 C192.42,180.56 189.21,175.61 187.63,173.09 C186.06,170.56 183.54,166.93 182.04,165.00 C176.18,157.49 165.00,138.82 165.00,136.54 C165.00,131.88 167.20,131.00 178.92,131.00 C191.25,131.00 190.40,130.51 198.00,141.97 C200.48,145.70 206.64,154.99 211.69,162.63 C216.75,170.26 222.26,178.34 223.94,180.60 C225.63,182.85 227.00,184.93 227.00,185.22 C227.00,186.44 242.37,208.69 244.64,210.75 C246.42,212.37 248.35,213.00 251.54,213.00 C257.47,213.00 259.52,210.95 271.58,193.00 C276.94,185.02 282.10,177.38 283.03,176.00 C283.97,174.62 287.42,169.45 290.70,164.50 C302.81,146.21 310.25,135.44 312.30,133.22 C314.28,131.07 315.06,130.95 325.35,131.22 C335.95,131.49 336.35,131.59 338.32,134.22 L 340.35 136.94 L 323.42 162.02 C314.12,175.81 305.38,188.85 304.00,190.99 C302.62,193.12 299.81,197.34 297.75,200.36 C293.44,206.65 293.09,209.25 296.22,211.44 C298.13,212.78 303.39,213.00 333.52,213.00 C359.47,213.00 368.91,213.31 369.80,214.20 C370.57,214.97 371.00,218.88 371.00,225.05 C371.00,233.12 370.70,234.96 369.17,236.35 C367.49,237.86 357.88,238.00 251.29,238.00 C144.57,238.00 135.13,237.87 133.87,236.35 Z" fill="rgb(254,254,252)"/>
</g>
</svg>